<svg width="24" height="24" viewBox="0 0 24 24" fill="none" xmlns="http://www.w3.org/2000/svg">
<path d="M3.77801 11.942C2.83001 10.29 2.37201 8.94004 2.09601 7.57204C1.68801 5.54804 2.62201 3.57104 4.16901 2.30904C4.82301 1.77604 5.57301 1.95904 5.96001 2.65204L6.83301 4.21904C7.52501 5.46104 7.87101 6.08104 7.80301 6.73904C7.73401 7.39804 7.26701 7.93404 6.33401 9.00604L3.77801 11.942ZM3.77801 11.942C5.69701 15.288 8.70801 18.302 12.058 20.222M12.058 20.222C13.711 21.17 15.06 21.628 16.428 21.904C18.452 22.312 20.429 21.378 21.69 19.831C22.224 19.177 22.041 18.427 21.348 18.04L19.781 17.167C18.539 16.475 17.919 16.129 17.261 16.197C16.602 16.266 16.066 16.733 14.994 17.666L12.058 20.222ZM12 7.00004H12.857C13.261 7.00004 13.463 7.00004 13.589 7.12204C13.714 7.24404 13.714 7.44104 13.714 7.83304C13.714 8.61904 13.714 9.01204 13.464 9.25604C13.272 9.44204 12.993 9.48604 12.514 9.49604C12.269 9.50204 12.147 9.50504 12.074 9.57804C12.001 9.65104 12 9.76704 12 10V11.167C12 11.56 12 11.756 12.126 11.878C12.251 12 12.453 12 12.857 12H13.714M18 7.00004V9.50004M18 9.50004H16.543C16.22 9.50004 16.058 9.50004 15.958 9.40204C15.858 9.30504 15.858 9.14804 15.858 8.83304V7.00004M18 9.50004V12" stroke="#F8F8F8" stroke-width="1.5" stroke-linecap="round" stroke-linejoin="round"/>
<path d="M10 4.30504C10.0887 4.20504 10.181 4.10704 10.277 4.01104C10.9271 3.36326 11.7005 2.85236 12.5514 2.50853C13.4023 2.16471 14.3135 1.99494 15.2311 2.00926C16.1488 2.02358 17.0542 2.22169 17.894 2.59189C18.7338 2.96209 19.4908 3.49687 20.1204 4.16463C20.75 4.83238 21.2393 5.61956 21.5595 6.47964C21.8797 7.33973 22.0243 8.25527 21.9846 9.17217C21.9449 10.0891 21.7219 10.9887 21.3286 11.8179C20.9354 12.6472 20.3799 13.3891 19.695 14" stroke="#F8F8F8" stroke-width="1.5" stroke-linecap="round" stroke-linejoin="round"/>
</svg>
