<?xml version="1.0" encoding="utf-8"?>
<!-- Generator: Adobe Illustrator 25.4.1, SVG Export Plug-In . SVG Version: 6.00 Build 0)  -->
<svg version="1.1" xmlns="http://www.w3.org/2000/svg" xmlns:xlink="http://www.w3.org/1999/xlink" x="0px" y="0px"
	 viewBox="0 0 2035 843" style="enable-background:new 0 0 2035 843;" xml:space="preserve">
<style type="text/css">
	.st0{fill:#324C8E;}
	.st1{fill:#4E64EE;}
	.st2{fill:#3554B7;}
	.st3{fill:#DDDDDD;}
</style>
<g id="Background">
</g>
<g id="objects">
	<g>
		<line class="st0" x1="1677.52" y1="381.15" x2="1677.31" y2="381.26"/>
		<polygon class="st0" points="1677.31,381.26 1585.96,426.84 1587.53,408.39 1651.32,341.05 		"/>
		<line class="st0" x1="1677.5" y1="381.55" x2="1677.31" y2="381.26"/>
		<path class="st1" d="M1591.96,301.55l209,194.44c9.83,9.14,25.8,5.19,30.24-7.48l151.05-431.69c4.93-14.09-7.91-27.96-22.34-24.13
			l-478.4,127.14c-14.15,3.76-18.61,21.63-7.9,31.61L1591.96,301.55"/>
		<path class="st2" d="M1918.14,93.93l-267.36,262.29l-63.5,69.56c-4.81,4.83-12.98,0.71-11.96-6.02l17.82-117.18L1918.14,93.93z"/>
		<path class="st2" d="M27.67,760.05c-0.36,0-0.72-0.06-1.07-0.2c-1.55-0.59-2.32-2.33-1.73-3.88c1.1-2.88,2.25-5.78,3.4-8.63
			c0.62-1.54,2.37-2.27,3.91-1.66c1.54,0.62,2.28,2.37,1.66,3.91c-1.14,2.81-2.27,5.68-3.36,8.52
			C30.02,759.32,28.88,760.05,27.67,760.05z M689.32,757.76c-0.06,0-0.12,0-0.19-0.01c-4.11-0.25-8.29-0.68-12.43-1.26
			c-1.64-0.23-2.78-1.75-2.55-3.39c0.23-1.64,1.74-2.78,3.39-2.55c3.98,0.56,8.01,0.97,11.96,1.21c1.65,0.1,2.91,1.53,2.81,3.18
			C692.21,756.54,690.89,757.76,689.32,757.76z M719.9,756.55c-1.47,0-2.76-1.08-2.97-2.58c-0.23-1.64,0.91-3.16,2.55-3.39
			c3.92-0.55,7.9-1.27,11.83-2.13c1.62-0.35,3.22,0.67,3.57,2.29c0.35,1.62-0.67,3.22-2.29,3.57c-4.08,0.89-8.21,1.64-12.29,2.21
			C720.18,756.55,720.04,756.55,719.9,756.55z M647.32,749.54c-0.31,0-0.62-0.05-0.93-0.15c-3.88-1.27-7.82-2.7-11.7-4.24
			c-1.54-0.61-2.29-2.36-1.68-3.9c0.61-1.54,2.35-2.29,3.9-1.68c3.77,1.5,7.59,2.88,11.35,4.11c1.57,0.52,2.43,2.21,1.92,3.78
			C649.76,748.74,648.58,749.54,647.32,749.54z M761.16,745.19c-1.18,0-2.3-0.7-2.77-1.86c-0.63-1.53,0.1-3.29,1.63-3.92
			c3.67-1.51,7.38-3.18,11.01-4.95c1.49-0.72,3.29-0.11,4.01,1.38c0.73,1.49,0.11,3.29-1.38,4.01c-3.74,1.83-7.56,3.55-11.36,5.11
			C761.93,745.11,761.54,745.19,761.16,745.19z M608.16,732.14c-0.5,0-1-0.12-1.46-0.38c-3.55-1.98-7.14-4.1-10.68-6.3
			c-1.41-0.87-1.84-2.72-0.97-4.13s2.72-1.84,4.13-0.97c3.46,2.15,6.98,4.22,10.45,6.16c1.45,0.81,1.96,2.64,1.15,4.08
			C610.23,731.58,609.21,732.14,608.16,732.14z M947.66,726.9c-1.65,0-3-1.34-3-3c0-1.66,1.34-3,3-3c4-0.01,8.08-0.1,12.13-0.27
			c1.64-0.07,3.05,1.21,3.12,2.87c0.07,1.66-1.21,3.06-2.87,3.13C955.91,726.8,951.74,726.89,947.66,726.9
			C947.66,726.9,947.66,726.9,947.66,726.9z M917.07,725.25c-0.11,0-0.22-0.01-0.33-0.02c-2.43-0.27-4.9-0.58-7.33-0.92
			c-1.66-0.23-3.32-0.48-4.97-0.75c-1.64-0.26-2.75-1.81-2.48-3.44c0.26-1.64,1.8-2.75,3.44-2.48c1.61,0.26,3.22,0.5,4.84,0.73
			c2.38,0.33,4.78,0.64,7.16,0.9c1.65,0.18,2.83,1.67,2.65,3.31C919.88,724.12,918.58,725.25,917.07,725.25z M798.8,724.72
			c-0.96,0-1.9-0.46-2.48-1.31c-0.93-1.37-0.58-3.24,0.79-4.17c3.29-2.25,6.59-4.63,9.81-7.09c1.32-1.01,3.2-0.76,4.21,0.56
			c1.01,1.32,0.76,3.2-0.56,4.21c-3.3,2.52-6.69,4.97-10.07,7.28C799.98,724.55,799.39,724.72,798.8,724.72z M990.43,723.85
			c-1.48,0-2.76-1.09-2.97-2.59c-0.22-1.64,0.93-3.15,2.57-3.38c3.95-0.54,7.99-1.16,12.02-1.84c1.64-0.27,3.18,0.82,3.46,2.46
			c0.28,1.63-0.82,3.18-2.45,3.46c-4.1,0.7-8.21,1.33-12.22,1.87C990.7,723.84,990.57,723.85,990.43,723.85z M43.45,723.46
			c-0.44,0-0.88-0.1-1.3-0.3c-1.49-0.72-2.12-2.51-1.4-4.01c1.79-3.71,3.65-7.42,5.52-11.04c0.76-1.47,2.57-2.05,4.04-1.28
			c1.47,0.76,2.05,2.57,1.28,4.04c-1.85,3.57-3.68,7.23-5.44,10.89C45.63,722.83,44.56,723.46,43.45,723.46z M875.04,716.79
			c-0.28,0-0.57-0.04-0.85-0.12c-3.94-1.17-7.92-2.45-11.81-3.82c-1.56-0.55-2.39-2.26-1.84-3.82c0.55-1.56,2.26-2.39,3.82-1.84
			c3.8,1.33,7.68,2.59,11.53,3.72c1.59,0.47,2.5,2.14,2.03,3.73C877.53,715.94,876.34,716.79,875.04,716.79z M1032.56,715.74
			c-1.35,0-2.58-0.92-2.91-2.29c-0.39-1.61,0.59-3.23,2.2-3.63c3.85-0.94,7.82-1.96,11.8-3.04c1.6-0.43,3.25,0.51,3.68,2.11
			c0.43,1.6-0.51,3.25-2.11,3.68c-4.03,1.09-8.05,2.13-11.95,3.08C1033.04,715.72,1032.8,715.74,1032.56,715.74z M572.37,708.51
			c-0.63,0-1.27-0.2-1.81-0.61c-3.21-2.43-6.48-5-9.73-7.63c-1.29-1.04-1.49-2.93-0.45-4.22c1.04-1.29,2.93-1.49,4.22-0.45
			c3.2,2.59,6.42,5.11,9.58,7.51c1.32,1,1.58,2.88,0.58,4.2C574.17,708.1,573.28,708.51,572.37,708.51z M1073.8,703.87
			c-1.26,0-2.44-0.8-2.85-2.07c-0.51-1.58,0.34-3.27,1.92-3.78c3.76-1.23,7.65-2.54,11.57-3.9c1.57-0.54,3.28,0.29,3.82,1.85
			s-0.29,3.27-1.85,3.82c-3.95,1.37-7.88,2.69-11.67,3.93C1074.43,703.82,1074.11,703.87,1073.8,703.87z M835.14,701.12
			c-0.45,0-0.9-0.1-1.33-0.31c-3.69-1.83-7.39-3.77-10.98-5.78c-1.45-0.81-1.97-2.63-1.16-4.08c0.81-1.45,2.63-1.97,4.08-1.16
			c1.38,0.77,2.78,1.53,4.18,2.28c2.79-2.77,5.55-5.63,8.21-8.53c1.12-1.22,3.02-1.3,4.24-0.18c1.22,1.12,1.3,3.02,0.18,4.24
			c-2.28,2.49-4.64,4.96-7.03,7.36c0.31,0.16,0.63,0.31,0.94,0.47c1.49,0.74,2.09,2.54,1.36,4.02
			C837.3,700.51,836.24,701.12,835.14,701.12z M1114.2,689.39c-1.21,0-2.34-0.73-2.8-1.92c-0.6-1.55,0.17-3.28,1.72-3.88
			c3.81-1.47,7.61-2.96,11.39-4.46c1.54-0.62,3.28,0.14,3.9,1.68c0.61,1.54-0.14,3.28-1.68,3.9c-3.8,1.51-7.62,3.01-11.45,4.49
			C1114.93,689.32,1114.56,689.39,1114.2,689.39z M64.03,685.84c-0.54,0-1.08-0.14-1.58-0.45c-1.41-0.87-1.84-2.72-0.97-4.13
			c2.18-3.52,4.42-7.01,6.68-10.39c0.92-1.38,2.78-1.75,4.16-0.83c1.38,0.92,1.75,2.78,0.83,4.16c-2.22,3.33-4.43,6.77-6.57,10.23
			C66.02,685.34,65.04,685.84,64.03,685.84z M539.54,680.88c-0.72,0-1.45-0.26-2.02-0.79c-2.88-2.63-5.83-5.37-9.02-8.36
			c-1.21-1.13-1.27-3.03-0.13-4.24c1.13-1.21,3.03-1.27,4.24-0.13c3.17,2.98,6.1,5.69,8.96,8.31c1.22,1.12,1.31,3.01,0.19,4.24
			C541.16,680.55,540.35,680.88,539.54,680.88z M798.48,678.9c-0.61,0-1.23-0.19-1.77-0.58c-3.33-2.43-6.64-4.97-9.84-7.56
			c-1.29-1.04-1.49-2.93-0.45-4.22c1.04-1.29,2.93-1.49,4.22-0.45c3.13,2.53,6.36,5.01,9.61,7.38c1.34,0.98,1.63,2.85,0.66,4.19
			C800.31,678.47,799.4,678.9,798.48,678.9z M1153.99,673.3c-1.17,0-2.29-0.69-2.77-1.84c-0.64-1.53,0.08-3.29,1.61-3.93
			c3.76-1.58,7.52-3.16,11.28-4.76c1.53-0.65,3.29,0.06,3.94,1.58s-0.06,3.29-1.58,3.94c-3.76,1.61-7.54,3.2-11.31,4.78
			C1154.77,673.23,1154.38,673.3,1153.99,673.3z M859.69,664.83c-0.61,0-1.22-0.18-1.76-0.57c-1.34-0.97-1.64-2.85-0.67-4.19
			c2.35-3.24,4.66-6.6,6.88-9.98c0.91-1.38,2.77-1.77,4.15-0.86c1.38,0.91,1.77,2.77,0.86,4.15c-2.27,3.46-4.64,6.89-7.04,10.21
			C861.54,664.4,860.62,664.83,859.69,664.83z M1193.39,656.29c-1.15,0-2.25-0.66-2.74-1.78c-0.67-1.51,0.01-3.29,1.52-3.96
			c3.73-1.66,7.45-3.33,11.17-5.01c1.51-0.68,3.29-0.01,3.97,1.5s0.01,3.29-1.5,3.97c-3.73,1.69-7.46,3.36-11.21,5.02
			C1194.22,656.21,1193.8,656.29,1193.39,656.29z M508.39,651.35c-0.75,0-1.5-0.28-2.08-0.84c-2.94-2.84-5.88-5.67-8.83-8.5
			c-1.2-1.15-1.24-3.05-0.09-4.24c1.15-1.2,3.05-1.23,4.24-0.09c2.95,2.83,5.9,5.67,8.84,8.51c1.19,1.15,1.23,3.05,0.08,4.24
			C509.96,651.04,509.18,651.35,508.39,651.35z M88.73,650.8c-0.66,0-1.32-0.22-1.88-0.66c-1.29-1.04-1.5-2.93-0.46-4.22
			c2.58-3.21,5.25-6.41,7.93-9.5c1.09-1.25,2.98-1.39,4.23-0.3c1.25,1.08,1.39,2.98,0.3,4.23c-2.63,3.03-5.25,6.17-7.78,9.32
			C90.48,650.42,89.61,650.8,88.73,650.8z M766.17,650.72c-0.79,0-1.57-0.31-2.16-0.92c-2.87-2.98-5.68-6.07-8.37-9.17
			c-1.08-1.25-0.95-3.15,0.3-4.23s3.15-0.95,4.23,0.3c2.62,3.03,5.37,6.04,8.16,8.94c1.15,1.19,1.11,3.09-0.08,4.24
			C767.66,650.45,766.91,650.72,766.17,650.72z M1232.42,638.43c-1.13,0-2.2-0.64-2.72-1.72c-0.71-1.5-0.06-3.29,1.44-3.99
			c3.69-1.74,7.38-3.49,11.06-5.25c1.5-0.72,3.29-0.08,4,1.41s0.08,3.29-1.41,4c-3.69,1.77-7.39,3.52-11.09,5.27
			C1233.28,638.34,1232.84,638.43,1232.42,638.43z M882.01,628.23c-0.46,0-0.92-0.1-1.36-0.33c-1.48-0.75-2.07-2.55-1.32-4.03
			c1.82-3.59,3.59-7.26,5.25-10.93c0.68-1.51,2.46-2.18,3.97-1.49c1.51,0.68,2.18,2.46,1.49,3.97c-1.7,3.75-3.51,7.51-5.37,11.17
			C884.16,627.63,883.1,628.23,882.01,628.23z M477.18,621.9c-0.72,0-1.44-0.26-2.01-0.78c-3.11-2.82-6.18-5.54-9.13-8.1
			c-1.25-1.09-1.38-2.98-0.3-4.23c1.09-1.25,2.98-1.38,4.23-0.3c2.97,2.58,6.08,5.33,9.22,8.18c1.23,1.11,1.32,3.01,0.21,4.24
			C478.81,621.56,477.99,621.9,477.18,621.9z M1271.04,619.72c-1.1,0-2.16-0.61-2.69-1.66c-0.74-1.48-0.13-3.28,1.35-4.02
			c3.65-1.82,7.3-3.65,10.94-5.49c1.48-0.75,3.28-0.16,4.03,1.32c0.75,1.48,0.15,3.28-1.32,4.03c-3.65,1.85-7.31,3.68-10.98,5.51
			C1271.94,619.62,1271.49,619.72,1271.04,619.72z M117.79,619.29c-0.8,0-1.6-0.32-2.19-0.94c-1.14-1.21-1.08-3.11,0.13-4.24
			c3.01-2.83,6.1-5.62,9.2-8.29c1.25-1.08,3.15-0.94,4.23,0.31c1.08,1.25,0.94,3.15-0.31,4.23c-3.03,2.61-6.06,5.35-9.01,8.12
			C119.26,619.02,118.53,619.29,117.79,619.29z M739.44,617.22c-0.98,0-1.94-0.48-2.51-1.36c-2.27-3.47-4.46-7.03-6.51-10.59
			c-0.83-1.44-0.34-3.27,1.1-4.1c1.43-0.83,3.27-0.33,4.1,1.1c2,3.46,4.13,6.93,6.33,10.3c0.91,1.39,0.52,3.25-0.87,4.15
			C740.57,617.06,740,617.22,739.44,617.22z M1309.25,600.18c-1.08,0-2.12-0.58-2.66-1.61c-0.77-1.47-0.21-3.28,1.26-4.05
			c3.61-1.9,7.22-3.81,10.82-5.73c1.47-0.78,3.28-0.22,4.06,1.24c0.78,1.46,0.23,3.28-1.24,4.06c-3.61,1.93-7.23,3.84-10.85,5.74
			C1310.19,600.07,1309.72,600.18,1309.25,600.18z M444.21,594.44c-0.63,0-1.26-0.2-1.8-0.6c-3.29-2.47-6.61-4.86-9.85-7.11
			c-1.36-0.94-1.7-2.81-0.75-4.17c0.94-1.36,2.81-1.7,4.17-0.75c3.3,2.29,6.67,4.73,10.03,7.24c1.33,0.99,1.59,2.88,0.6,4.2
			C446.02,594.03,445.12,594.44,444.21,594.44z M151.14,592.37c-0.96,0-1.9-0.46-2.48-1.3c-0.94-1.37-0.59-3.23,0.78-4.17
			c3.41-2.33,6.9-4.61,10.38-6.77c1.41-0.87,3.26-0.44,4.13,0.97c0.87,1.41,0.44,3.26-0.97,4.13c-3.4,2.11-6.82,4.33-10.15,6.62
			C152.32,592.2,151.73,592.37,151.14,592.37z M898.44,588.63c-0.31,0-0.63-0.05-0.94-0.15c-1.57-0.52-2.43-2.21-1.91-3.79
			c1.26-3.82,2.45-7.72,3.54-11.6c0.45-1.59,2.1-2.52,3.7-2.07c1.59,0.45,2.52,2.11,2.07,3.7c-1.12,3.96-2.33,7.95-3.62,11.85
			C900.88,587.82,899.71,588.63,898.44,588.63z M1347.02,579.81c-1.06,0-2.08-0.56-2.63-1.55c-0.8-1.45-0.28-3.28,1.17-4.08
			c3.57-1.98,7.13-3.96,10.69-5.96c1.44-0.82,3.27-0.3,4.08,1.15c0.81,1.45,0.3,3.27-1.15,4.08c-3.57,2-7.14,4-10.72,5.98
			C1348.01,579.69,1347.51,579.81,1347.02,579.81z M719.64,579.22c-1.19,0-2.32-0.71-2.79-1.89c-1.54-3.84-2.98-7.76-4.29-11.67
			c-0.53-1.57,0.32-3.27,1.89-3.8c1.58-0.53,3.27,0.32,3.8,1.89c1.28,3.8,2.68,7.62,4.18,11.35c0.62,1.54-0.13,3.29-1.67,3.9
			C720.39,579.15,720.01,579.22,719.64,579.22z M407.97,571.57c-0.45,0-0.9-0.1-1.33-0.31c-3.56-1.76-7.26-3.46-10.99-5.04
			c-1.53-0.65-2.24-2.41-1.59-3.93c0.65-1.52,2.41-2.24,3.93-1.59c3.84,1.63,7.64,3.37,11.3,5.19c1.49,0.73,2.09,2.53,1.36,4.02
			C410.14,570.96,409.08,571.57,407.97,571.57z M188.35,571.11c-1.13,0-2.21-0.64-2.72-1.73c-0.7-1.5-0.05-3.29,1.45-3.99
			c3.73-1.74,7.55-3.41,11.36-4.97c1.53-0.63,3.29,0.11,3.91,1.64s-0.11,3.29-1.64,3.91c-3.72,1.52-7.45,3.16-11.1,4.86
			C189.21,571.02,188.78,571.11,188.35,571.11z M1384.34,558.62c-1.03,0-2.04-0.53-2.59-1.49c-0.83-1.43-0.35-3.27,1.08-4.1
			c3.53-2.05,7.05-4.12,10.56-6.19c1.43-0.84,3.27-0.37,4.11,1.06c0.84,1.43,0.37,3.27-1.06,4.11c-3.52,2.08-7.05,4.15-10.59,6.21
			C1385.37,558.49,1384.85,558.62,1384.34,558.62z M367.9,556.38c-0.27,0-0.54-0.04-0.81-0.11c-3.86-1.07-7.81-2.07-11.75-2.96
			c-1.62-0.37-2.63-1.97-2.26-3.59c0.37-1.62,1.97-2.63,3.59-2.26c4.03,0.91,8.08,1.93,12.03,3.03c1.6,0.44,2.53,2.1,2.09,3.69
			C370.42,555.51,369.21,556.38,367.9,556.38z M228.56,556.3c-1.32,0-2.52-0.87-2.89-2.2c-0.44-1.6,0.5-3.25,2.09-3.69
			c3.96-1.09,8-2.11,12.03-3.01c1.61-0.36,3.22,0.65,3.59,2.27c0.36,1.62-0.65,3.22-2.27,3.59c-3.93,0.89-7.89,1.88-11.75,2.94
			C229.1,556.27,228.83,556.3,228.56,556.3z M325.78,548.41c-0.11,0-0.21,0-0.32-0.02c-4-0.42-8.06-0.75-12.08-0.99
			c-1.65-0.1-2.92-1.52-2.82-3.17c0.1-1.65,1.52-2.9,3.17-2.82c4.11,0.24,8.27,0.58,12.36,1.01c1.65,0.17,2.84,1.65,2.67,3.3
			C328.6,547.26,327.29,548.41,325.78,548.41z M270.69,548.37c-1.52,0-2.82-1.15-2.98-2.69c-0.17-1.65,1.03-3.12,2.67-3.29
			c4.1-0.43,8.25-0.76,12.36-1c1.65-0.08,3.07,1.17,3.17,2.82s-1.17,3.07-2.82,3.17c-4.01,0.23-8.08,0.56-12.08,0.97
			C270.9,548.36,270.79,548.37,270.69,548.37z M908.75,547c-0.17,0-0.33-0.01-0.5-0.04c-1.63-0.28-2.73-1.83-2.46-3.46
			c0.67-3.97,1.27-8,1.77-12c0.21-1.64,1.71-2.8,3.35-2.6c1.64,0.21,2.81,1.71,2.6,3.35c-0.51,4.08-1.12,8.21-1.81,12.26
			C911.45,545.97,910.18,547,908.75,547z M707.65,538.08c-1.41,0-2.67-1-2.94-2.44c-0.77-4.05-1.44-8.18-1.99-12.26
			c-0.22-1.64,0.93-3.15,2.57-3.37c1.65-0.21,3.15,0.93,3.37,2.57c0.53,3.98,1.18,8,1.93,11.94c0.31,1.63-0.76,3.2-2.39,3.51
			C708.02,538.06,707.83,538.08,707.65,538.08z M1421.19,536.61c-1.01,0-2-0.51-2.56-1.43c-0.87-1.41-0.42-3.26,0.99-4.12
			c3.48-2.13,6.95-4.27,10.42-6.42c1.41-0.87,3.26-0.44,4.13,0.97s0.44,3.26-0.97,4.13c-3.48,2.16-6.96,4.31-10.45,6.44
			C1422.26,536.47,1421.72,536.61,1421.19,536.61z M1457.54,513.81c-0.99,0-1.95-0.49-2.53-1.38c-0.9-1.39-0.49-3.25,0.9-4.15
			c3.43-2.21,6.86-4.42,10.28-6.65c1.39-0.9,3.25-0.51,4.15,0.88c0.9,1.39,0.51,3.25-0.88,4.15c-3.43,2.23-6.87,4.46-10.31,6.67
			C1458.66,513.65,1458.1,513.81,1457.54,513.81z M912.7,504.31c-0.02,0-0.04,0-0.05,0c-1.66-0.03-2.98-1.39-2.95-3.05
			c0.03-1.57,0.04-3.15,0.04-4.72c0-2.46-0.03-4.95-0.1-7.41c-0.04-1.66,1.26-3.04,2.92-3.08c1.68-0.07,3.03,1.26,3.08,2.92
			c0.07,2.51,0.1,5.05,0.1,7.57c0,1.61-0.01,3.22-0.04,4.83C915.67,503,914.34,504.31,912.7,504.31z M703.65,495.41
			C703.65,495.41,703.65,495.41,703.65,495.41c-1.66,0-3-1.34-3-3c0-4.12,0.11-8.3,0.33-12.42c0.09-1.66,1.53-2.92,3.16-2.84
			c1.65,0.09,2.92,1.5,2.84,3.16c-0.21,4.01-0.32,8.08-0.32,12.1C706.65,494.07,705.31,495.41,703.65,495.41z M1493.38,490.2
			c-0.96,0-1.91-0.46-2.49-1.32c-0.93-1.37-0.56-3.24,0.81-4.17c3.38-2.28,6.76-4.57,10.13-6.88c1.37-0.93,3.24-0.58,4.17,0.78
			c0.94,1.37,0.58,3.23-0.78,4.17c-3.38,2.31-6.76,4.61-10.16,6.9C1494.54,490.04,1493.96,490.2,1493.38,490.2z M1528.69,465.81
			c-0.94,0-1.87-0.44-2.45-1.27c-0.96-1.35-0.64-3.23,0.72-4.18c3.33-2.36,6.66-4.72,9.97-7.1c1.35-0.96,3.22-0.66,4.19,0.69
			s0.66,3.22-0.69,4.19c-3.33,2.38-6.66,4.76-10,7.12C1529.89,465.63,1529.29,465.81,1528.69,465.81z M910.13,461.51
			c-1.47,0-2.76-1.09-2.97-2.59c-0.56-4-1.21-8.03-1.93-11.97c-0.3-1.63,0.78-3.19,2.41-3.5c1.62-0.3,3.19,0.77,3.5,2.41
			c0.74,4.03,1.41,8.14,1.98,12.24c0.23,1.64-0.92,3.16-2.56,3.38C910.41,461.5,910.27,461.51,910.13,461.51z M707.66,452.74
			c-0.19,0-0.37-0.02-0.56-0.05c-1.63-0.31-2.7-1.88-2.39-3.51c0.77-4.06,1.66-8.14,2.64-12.14c0.4-1.61,2.02-2.6,3.63-2.2
			c1.61,0.4,2.59,2.02,2.2,3.63c-0.96,3.89-1.82,7.87-2.57,11.82C710.33,451.74,709.07,452.74,707.66,452.74z M900.89,419.65
			c-1.28,0-2.47-0.83-2.87-2.12c-1.19-3.86-2.48-7.73-3.83-11.5c-0.56-1.56,0.25-3.28,1.81-3.84c1.56-0.56,3.28,0.25,3.84,1.81
			c1.39,3.85,2.71,7.81,3.92,11.77c0.49,1.58-0.4,3.26-1.99,3.75C901.48,419.6,901.18,419.65,900.89,419.65z M719.6,411.59
			c-0.37,0-0.75-0.07-1.11-0.21c-1.54-0.61-2.29-2.36-1.68-3.9c1.53-3.84,3.18-7.68,4.92-11.41c0.7-1.5,2.48-2.15,3.99-1.46
			c1.5,0.7,2.15,2.48,1.46,3.99c-1.69,3.63-3.3,7.37-4.79,11.1C721.92,410.88,720.8,411.59,719.6,411.59z M884.73,379.95
			c-1.07,0-2.1-0.57-2.64-1.57c-1.94-3.59-4-7.08-6.12-10.35c-0.9-1.39-0.51-3.25,0.88-4.15c1.39-0.9,3.25-0.51,4.15,0.88
			c2.21,3.41,4.35,7.03,6.37,10.76c0.79,1.46,0.24,3.28-1.21,4.07C885.7,379.84,885.21,379.95,884.73,379.95z M739.48,373.65
			c-0.59,0-1.18-0.17-1.71-0.53c-1.36-0.94-1.7-2.81-0.76-4.17c2.39-3.45,4.93-6.81,7.54-9.98c1.05-1.28,2.94-1.46,4.22-0.41
			c1.28,1.05,1.46,2.94,0.41,4.22c-2.51,3.04-4.95,6.27-7.24,9.58C741.37,373.2,740.44,373.65,739.48,373.65z M858.81,346
			c-0.71,0-1.42-0.25-2-0.76c-3.02-2.69-6.16-5.12-9.34-7.22c-1.38-0.91-1.77-2.77-0.85-4.16c0.91-1.38,2.77-1.77,4.16-0.85
			c3.42,2.26,6.8,4.87,10.04,7.76c1.24,1.1,1.34,3,0.24,4.24C860.46,345.66,859.64,346,858.81,346z M769.02,342.76
			c-0.93,0-1.84-0.43-2.43-1.24c-0.97-1.34-0.68-3.22,0.67-4.19c3.5-2.54,7.09-4.81,10.69-6.76c1.46-0.79,3.28-0.25,4.07,1.21
			c0.79,1.46,0.25,3.28-1.21,4.07c-3.37,1.82-6.74,3.96-10.02,6.34C770.25,342.58,769.63,342.76,769.02,342.76z M820.72,327.76
			c-0.13,0-0.25-0.01-0.38-0.02c-0.29-0.04-0.57-0.07-0.86-0.1c-3.58-0.4-7.21-0.48-10.79-0.23c-1.66,0.1-3.08-1.13-3.2-2.79
			c-0.11-1.65,1.13-3.08,2.79-3.2c3.94-0.27,7.94-0.19,11.87,0.25c0.32,0.04,0.63,0.07,0.95,0.11c1.64,0.21,2.81,1.71,2.6,3.35
			C823.5,326.65,822.21,327.76,820.72,327.76z"/>
		<ellipse class="st3" cx="1732.5" cy="789.55" rx="156" ry="22.4"/>
	</g>
</g>
</svg>
