<svg width="1322" height="130" viewBox="0 0 1322 130" fill="none" xmlns="http://www.w3.org/2000/svg">
<path d="M43.66 130V20.85H0.74V0.499991H110.63V20.85H67.71V130H43.66ZM120.51 130L178.785 0.499991H202.465L260.925 130H235.765L185.63 13.265H195.25L145.3 130H120.51ZM147.335 100.03L153.81 81.16H223.74L230.215 100.03H147.335ZM315.504 99.475L314.209 70.985L382.104 0.499991H409.114L352.689 60.44L339.369 75.055L315.504 99.475ZM294.044 130V0.499991H318.094V130H294.044ZM384.324 130L334.744 70.985L350.654 53.41L412.444 130H384.324ZM467.67 54.335H532.05V74.13H467.67V54.335ZM469.52 109.835H542.595V130H445.47V0.499991H540.005V20.665H469.52V109.835ZM586.055 130V0.499991H605.85L662.46 95.035H652.1L707.785 0.499991H727.58L727.765 130H705.01L704.825 36.205H709.635L662.275 115.2H651.545L603.445 36.205H608.995V130H586.055ZM811.215 130V78.755L816.58 93.555L760.34 0.499991H786.055L831.195 75.425H816.765L862.275 0.499991H885.955L829.715 93.555L835.265 78.755V130H811.215ZM942.637 130V20.85H899.717V0.499991H1009.61V20.85H966.687V130H942.637ZM1074.14 130V78.755L1079.5 93.555L1023.26 0.499991H1048.98L1094.12 75.425H1079.69L1125.2 0.499991H1148.88L1092.64 93.555L1098.19 78.755V130H1074.14ZM1179.65 130V0.499991H1199.45L1256.06 95.035H1245.7L1301.38 0.499991H1321.18L1321.36 130H1298.61L1298.42 36.205H1303.23L1255.87 115.2H1245.14L1197.04 36.205H1202.59V130H1179.65Z" fill="white"/>
</svg>
