<svg width="24" height="24" viewBox="0 0 24 24" fill="none" xmlns="http://www.w3.org/2000/svg">
<path d="M3.77777 11.942C2.82977 10.29 2.37177 8.94004 2.09577 7.57204C1.68777 5.54804 2.62177 3.57104 4.16877 2.30904C4.82277 1.77604 5.57277 1.95904 5.95977 2.65204L6.83277 4.21904C7.52477 5.46104 7.87076 6.08104 7.80276 6.73904C7.73376 7.39804 7.26677 7.93404 6.33377 9.00604L3.77777 11.942ZM3.77777 11.942C5.69677 15.288 8.70777 18.302 12.0578 20.222M12.0578 20.222C13.7108 21.17 15.0598 21.628 16.4278 21.904C18.4518 22.312 20.4288 21.378 21.6898 19.831C22.2238 19.177 22.0408 18.427 21.3478 18.04L19.7808 17.167C18.5388 16.475 17.9188 16.129 17.2608 16.197C16.6018 16.266 16.0658 16.733 14.9938 17.666L12.0578 20.222ZM11.9998 7.00004H12.8568C13.2608 7.00004 13.4628 7.00004 13.5888 7.12204C13.7138 7.24404 13.7138 7.44104 13.7138 7.83304C13.7138 8.61904 13.7138 9.01204 13.4638 9.25604C13.2718 9.44204 12.9928 9.48604 12.5138 9.49604C12.2688 9.50204 12.1468 9.50504 12.0738 9.57804C12.0008 9.65104 11.9998 9.76704 11.9998 10V11.167C11.9998 11.56 11.9998 11.756 12.1258 11.878C12.2508 12 12.4528 12 12.8568 12H13.7138M17.9998 7.00004V9.50004M17.9998 9.50004H16.5428C16.2198 9.50004 16.0578 9.50004 15.9578 9.40204C15.8578 9.30504 15.8578 9.14804 15.8578 8.83304V7.00004M17.9998 9.50004V12" stroke="#F8F8F8" stroke-width="1.5" stroke-linecap="round" stroke-linejoin="round"/>
<path d="M10 4.30504C10.0887 4.20504 10.181 4.10704 10.277 4.01104C10.9271 3.36326 11.7005 2.85236 12.5514 2.50853C13.4023 2.16471 14.3135 1.99494 15.2311 2.00926C16.1488 2.02358 17.0542 2.22169 17.894 2.59189C18.7338 2.96209 19.4908 3.49687 20.1204 4.16463C20.75 4.83238 21.2393 5.61956 21.5595 6.47964C21.8797 7.33973 22.0243 8.25527 21.9846 9.17217C21.9449 10.0891 21.7219 10.9887 21.3286 11.8179C20.9354 12.6472 20.3799 13.3891 19.695 14" stroke="#F8F8F8" stroke-width="1.5" stroke-linecap="round" stroke-linejoin="round"/>
</svg>
