<svg width="14" height="21" viewBox="0 0 14 21" fill="none" xmlns="http://www.w3.org/2000/svg">
<path d="M12.9998 0V1.362L7.80985 7.55C8.98418 7.69734 10.096 8.16247 11.0254 8.89522C11.9549 9.62797 12.6666 10.6005 13.084 11.7081C13.5013 12.8156 13.6084 14.016 13.3936 15.1799C13.1789 16.3438 12.6505 17.427 11.8655 18.3127C11.0804 19.1984 10.0684 19.8529 8.93872 20.2058C7.809 20.5586 6.6044 20.5964 5.4548 20.315C4.3052 20.0336 3.25424 19.4437 2.41524 18.6089C1.57625 17.7741 0.981052 16.7262 0.693848 15.578L2.63385 15.092C2.90318 16.1547 3.55101 17.0826 4.4558 17.7016C5.36058 18.3206 6.46015 18.5882 7.54821 18.4542C8.63627 18.3202 9.63804 17.7938 10.3656 16.9737C11.0931 16.1536 11.4964 15.0963 11.4998 14C11.5001 13.2335 11.3045 12.4797 10.9318 11.81C10.559 11.1403 10.0213 10.5769 9.36976 10.1733C8.7182 9.76961 7.97434 9.53907 7.2087 9.50349C6.44306 9.46792 5.68103 9.6285 4.99485 9.97L4.76685 10.092L4.07685 8.885L9.85485 2H1.49985V0H12.9998Z" fill="#F8F8F8"/>
</svg>
