<svg width="12" height="21" viewBox="0 0 12 21" fill="none" xmlns="http://www.w3.org/2000/svg">
<path d="M10 6.50001C10 5.43915 9.57857 4.42173 8.82843 3.67159C8.07828 2.92144 7.06087 2.50001 6 2.50001C4.93913 2.50001 3.92172 2.92144 3.17157 3.67159C2.42143 4.42173 2 5.43915 2 6.50001H0C3.6977e-05 5.53989 0.230485 4.5938 0.671985 3.74121C1.11349 2.88862 1.75314 2.15444 2.53723 1.60032C3.32132 1.04621 4.22693 0.688357 5.178 0.556819C6.12906 0.425282 7.09781 0.523905 8.00286 0.844402C8.90791 1.1649 9.72282 1.69791 10.3792 2.39866C11.0355 3.09942 11.5141 3.94745 11.7747 4.87152C12.0353 5.79558 12.0704 6.76871 11.877 7.70914C11.6835 8.64957 11.2672 9.52984 10.663 10.276L3.344 18.999L12 19V21H0V19.873L9.064 9.07101C9.66988 8.35147 10.0015 7.44067 10 6.50001Z" fill="#F8F8F8"/>
</svg>
