<svg width="20" height="20" viewBox="0 0 20 20" fill="none" xmlns="http://www.w3.org/2000/svg">
<path d="M19.3166 16.011L15.9381 12.6277L13.3395 11.5525C14.2047 10.3203 14.6683 8.85023 14.6666 7.34382C14.6666 3.29441 11.3769 0 7.33332 0C3.2897 0 0 3.29441 0 7.34382C0 11.3932 3.2897 14.6876 7.33332 14.6876C8.85066 14.6894 10.3308 14.2171 11.5674 13.3367L12.6383 15.932L16.0166 19.3155C16.2333 19.5325 16.4905 19.7047 16.7736 19.8221C17.0567 19.9395 17.3601 20 17.6666 20C17.973 20 18.2764 19.9396 18.5595 19.8222C18.8426 19.7047 19.0998 19.5326 19.3165 19.3156C19.5332 19.0987 19.7051 18.8411 19.8224 18.5576C19.9396 18.2741 20 17.9702 20 17.6634C20 17.3565 19.9397 17.0526 19.8224 16.7691C19.7052 16.4856 19.5333 16.228 19.3166 16.011ZM1.33333 7.34382C1.33333 4.03076 4.02499 1.33524 7.33332 1.33524C10.6416 1.33524 13.3333 4.03076 13.3333 7.34382C13.3333 10.6569 10.6416 13.3524 7.33332 13.3524C4.02499 13.3524 1.33333 10.6569 1.33333 7.34382ZM18.3737 18.3714C18.1861 18.5589 17.9318 18.6642 17.6666 18.6642C17.4015 18.6642 17.1472 18.5589 16.9595 18.3714L13.769 15.1763L12.7734 12.7631L15.1833 13.7601L18.3738 16.9552C18.5611 17.1431 18.6662 17.3978 18.6662 17.6633C18.6662 17.9288 18.561 18.1835 18.3737 18.3714Z" fill="white"/>
</svg>
