<svg width="24" height="24" viewBox="0 0 24 24" fill="none" xmlns="http://www.w3.org/2000/svg">
<path d="M22.02 11.164C21.887 10.8979 21.6914 10.668 21.45 10.494L20.12 9.49399C20.0508 9.44629 20.0011 9.3753 19.98 9.29399C19.9501 9.21334 19.9501 9.12465 19.98 9.04399L20.53 7.41399C20.6183 7.12248 20.6388 6.81465 20.59 6.51399C20.5439 6.2078 20.4199 5.91857 20.23 5.67399C20.047 5.42937 19.8066 5.23359 19.53 5.10399C19.2654 4.97694 18.9731 4.91848 18.68 4.93399H17.18C17.0913 4.93292 17.0053 4.90309 16.935 4.849C16.8647 4.79491 16.8138 4.71946 16.79 4.63399L16.36 3.13399C16.277 2.82968 16.1188 2.55113 15.9 2.32399C15.6817 2.10219 15.4146 1.93441 15.12 1.83399C14.8222 1.74262 14.5071 1.72207 14.2 1.77399C13.8954 1.83349 13.6102 1.96747 13.37 2.16399L12.23 3.06399C12.1668 3.12095 12.085 3.15294 12 3.15399C11.9232 3.16133 11.8461 3.1438 11.78 3.10399L10.65 2.20399C10.418 2.01442 10.1435 1.88402 9.84999 1.82399C9.56084 1.75399 9.25915 1.75399 8.96999 1.82399C8.68002 1.90455 8.41291 2.05181 8.18999 2.25399C7.96192 2.47494 7.78746 2.74518 7.67999 3.04399L7.24999 4.55399C7.22816 4.64302 7.17489 4.72115 7.09999 4.77399C7.02094 4.82816 6.92541 4.85293 6.82999 4.84399H5.40999C5.1032 4.83197 4.798 4.8937 4.51999 5.02399C4.23791 5.14923 3.99324 5.34565 3.80999 5.59399C3.62593 5.83823 3.50254 6.12271 3.44999 6.42399C3.39999 6.71699 3.41999 7.01899 3.50999 7.30399L3.99999 8.99299C4.02577 9.07329 4.02616 9.15959 4.00111 9.24012C3.97606 9.32065 3.92678 9.39149 3.85999 9.44299L2.52999 10.443C2.28799 10.623 2.08999 10.855 1.94999 11.123C1.81862 11.3889 1.75027 11.6814 1.75027 11.978C1.75027 12.2746 1.81862 12.5671 1.94999 12.833C2.08956 13.1005 2.28784 13.333 2.52999 13.513L3.85999 14.513C3.92678 14.5645 3.97606 14.6353 4.00111 14.7159C4.02616 14.7964 4.02577 14.8827 3.99999 14.963L3.44999 16.593C3.35683 16.8869 3.33288 17.1983 3.37999 17.503C3.42999 17.801 3.55399 18.083 3.73999 18.323C3.92299 18.573 4.16799 18.773 4.44999 18.903C4.71499 19.029 5.00699 19.087 5.29999 19.073H6.78999C6.88018 19.0691 6.96881 19.0975 7.03999 19.153C7.11187 19.2024 7.162 19.2776 7.17999 19.363L7.60999 20.873C7.69887 21.1719 7.85639 21.4458 8.06999 21.673C8.39611 22.0126 8.83727 22.2183 9.30708 22.2498C9.77689 22.2812 10.2415 22.1361 10.61 21.843L11.76 20.933C11.8294 20.877 11.9158 20.8464 12.005 20.8464C12.0942 20.8464 12.1806 20.877 12.25 20.933L13.38 21.833C13.62 22.035 13.91 22.17 14.22 22.223C14.333 22.233 14.447 22.233 14.56 22.223C14.7568 22.2232 14.9525 22.1929 15.14 22.133C15.4368 22.0396 15.7057 21.8736 15.9222 21.6501C16.1387 21.4266 16.296 21.1526 16.38 20.853L16.82 19.333C16.838 19.2476 16.8881 19.1724 16.96 19.123C17.0373 19.0645 17.1333 19.036 17.23 19.043H18.66C18.9658 19.0552 19.2702 18.997 19.55 18.873C19.8257 18.7414 20.0659 18.5456 20.2503 18.302C20.4348 18.0584 20.5581 17.7741 20.61 17.473C20.6618 17.1652 20.6378 16.8494 20.54 16.553L20 14.933C19.9701 14.8523 19.9701 14.7637 20 14.683C20.0211 14.6017 20.0708 14.5307 20.14 14.483L21.47 13.483C21.7118 13.3053 21.9073 13.0721 22.04 12.803C22.1797 12.538 22.2518 12.2426 22.25 11.943C22.2311 11.6693 22.1526 11.4041 22.02 11.164ZM16.58 10.403L12.16 14.823C11.9887 14.9904 11.7889 15.1259 11.57 15.223C11.348 15.313 11.11 15.361 10.87 15.363C10.6253 15.3643 10.3832 15.3132 10.16 15.213C9.93585 15.12 9.73203 14.9841 9.55999 14.813L7.37999 12.623C7.21617 12.4317 7.13056 12.1856 7.14028 11.9339C7.15 11.6823 7.25434 11.4435 7.43243 11.2654C7.61052 11.0873 7.84926 10.983 8.10094 10.9733C8.35262 10.9636 8.59869 11.0492 8.78999 11.213L10.87 13.293L15.17 8.98299C15.3574 8.79674 15.6108 8.6922 15.875 8.6922C16.1392 8.6922 16.3926 8.79674 16.58 8.98299C16.6802 9.07638 16.76 9.18938 16.8147 9.31497C16.8693 9.44056 16.8975 9.57604 16.8975 9.71299C16.8975 9.84994 16.8693 9.98543 16.8147 10.111C16.76 10.2366 16.6802 10.3496 16.58 10.443V10.403Z" fill="#F8F8F8"/>
</svg>
